<?xml version="1.0" encoding="UTF-8" standalone="no"?>
<svg
   xmlns:dc="http://purl.org/dc/elements/1.1/"
   xmlns:cc="http://creativecommons.org/ns#"
   xmlns:rdf="http://www.w3.org/1999/02/22-rdf-syntax-ns#"
   xmlns:svg="http://www.w3.org/2000/svg"
   xmlns="http://www.w3.org/2000/svg"
   xmlns:sodipodi="http://sodipodi.sourceforge.net/DTD/sodipodi-0.dtd"
   xmlns:inkscape="http://www.inkscape.org/namespaces/inkscape"
   width="100mm"
   height="150mm"
   viewBox="0 0 100 150"
   version="1.1"
   id="svg879"
   inkscape:version="1.0.1 (3bc2e813f5, 2020-09-07)"
   sodipodi:docname="tower8.svg">
  <defs
     id="defs873">
    <rect
       x="135"
       y="-5"
       width="125"
       height="30"
       id="rect2201" />
  </defs>
  <sodipodi:namedview
     id="base"
     pagecolor="#ffffff"
     bordercolor="#666666"
     borderopacity="1.0"
     inkscape:pageopacity="0.0"
     inkscape:pageshadow="2"
     inkscape:zoom="1.4940139"
     inkscape:cx="188.97638"
     inkscape:cy="238.30155"
     inkscape:document-units="mm"
     inkscape:current-layer="layer1"
     inkscape:document-rotation="0"
     showgrid="true"
     showguides="true"
     inkscape:window-width="1916"
     inkscape:window-height="1038"
     inkscape:window-x="0"
     inkscape:window-y="18"
     inkscape:window-maximized="1"
     fit-margin-top="0"
     fit-margin-left="0"
     fit-margin-right="0"
     fit-margin-bottom="0">
    <inkscape:grid
       type="xygrid"
       id="grid1442"
       dotted="true"
       units="mm"
       spacingx="5"
       spacingy="5"
       originx="0.390625"
       originy="0.39062498" />
    <sodipodi:guide
       position="0.390625,149.60938"
       orientation="0,793.70079"
       id="guide1453" />
    <sodipodi:guide
       position="210.39062,149.60938"
       orientation="1122.5197,0"
       id="guide1455" />
    <sodipodi:guide
       position="210.39062,-147.39063"
       orientation="0,-793.70079"
       id="guide1457" />
    <sodipodi:guide
       position="50.390625,169.60937"
       orientation="-1122.5197,0"
       id="guide1459" />
  </sodipodi:namedview>
  <metadata
     id="metadata876">
    <rdf:RDF>
      <cc:Work
         rdf:about="">
        <dc:format>image/svg+xml</dc:format>
        <dc:type
           rdf:resource="http://purl.org/dc/dcmitype/StillImage" />
        <dc:title></dc:title>
      </cc:Work>
    </rdf:RDF>
  </metadata>
  <g
     inkscape:label="Layer 1"
     inkscape:groupmode="layer"
     id="layer1"
     transform="translate(0.390625,0.390625)">
    <path
       id="path1444"
       style="fill:#0000ff;fill-opacity:0.6;stroke:none;stroke-width:0;stroke-linecap:round;stroke-miterlimit:4;stroke-dasharray:none"
       d="M 99.609375,49.479505 C 99.609375,77.022017 50,149.60938 50,149.60938 c 0,0 -50.390625,-72.587363 -50.390625,-100.129875 0,-27.542512 22.385763,-49.87013 50,-49.87013 27.614237,0 50,22.327618 50,49.87013 z"
       sodipodi:nodetypes="scsss" />
    <g
       aria-label="8"
       id="text2211"
       style="font-size:110px;line-height:125%;font-family:'DejaVu Sans';-inkscape-font-specification:'DejaVu Sans, Normal';letter-spacing:0px;word-spacing:0px;fill:#ffffff;fill-opacity:0.99997;stroke:#ffffff;stroke-width:0;stroke-linecap:butt;stroke-linejoin:miter;stroke-miterlimit:4;stroke-dasharray:none;stroke-opacity:1">
      <path
         d="m 48.252517,56.037025 q -7.734375,0 -12.192383,4.135743 -4.404297,4.135742 -4.404297,11.386718 0,7.250977 4.404297,11.386719 4.458008,4.135742 12.192383,4.135742 7.734375,0 12.192383,-4.135742 4.458007,-4.189453 4.458007,-11.386719 0,-7.250976 -4.458007,-11.386718 -4.404297,-4.135743 -12.192383,-4.135743 z m -10.84961,-4.61914 Q 30.420485,49.699135 26.499587,44.918861 22.6324,40.138588 22.6324,33.263588 q 0,-9.614258 6.821289,-15.200195 6.875,-5.585938 18.798828,-5.585938 11.977539,0 18.798828,5.585938 6.821289,5.585937 6.821289,15.200195 0,6.875 -3.920899,11.655273 -3.867187,4.780274 -10.795898,6.499024 7.841797,1.826172 12.192383,7.143555 4.404297,5.317382 4.404297,12.998046 0,11.655274 -7.143555,17.885743 -7.089844,6.230468 -20.356445,6.230468 -13.266602,0 -20.410157,-6.230468 -7.089843,-6.230469 -7.089843,-17.885743 0,-7.680664 4.404297,-12.998046 4.404296,-5.317383 12.246093,-7.143555 z M 33.428298,34.284096 q 0,6.230469 3.867187,9.721679 3.920899,3.491211 10.957032,3.491211 6.982422,0 10.90332,-3.491211 3.974609,-3.49121 3.974609,-9.721679 0,-6.230469 -3.974609,-9.72168 -3.920898,-3.491211 -10.90332,-3.491211 -7.036133,0 -10.957032,3.491211 -3.867187,3.491211 -3.867187,9.72168 z"
         style="fill:#ffffff;fill-opacity:0.99997;stroke:#ffffff;stroke-width:0;stroke-miterlimit:4;stroke-dasharray:none;stroke-opacity:1"
         id="path2255" />
    </g>
  </g>
</svg>
